{
  "images": [
    {"uri": "data:image/png;base64,"},
    {"uri": "data:image/png;base64,"},
    {"uri": "data:image/png;base64,"},
    {"uri": "data:image/png;base64,"},
    {"uri": "data:image/png;base64,"},
    {"uri": "data:image/png;base64,"},
    {"uri": "data:image/png;base64,"},
    {"uri": "data:image/png;base64,"},
    {"uri": "data:image/png;base64,"},
    {"uri": "data:image/png;base64,"},
    {"uri": "data:image/png;base64,"},
    {"uri": "data:image/png;base64,"}
  ],
  "accessors": [
    {
      "componentType": 5126,
      "min": [
        -12,
        -1.5,
        -25
      ],
      "byteOffset": 0,
      "bufferView": 0,
      "max": [
        12,
        1.5,
        25
      ],
      "count": 192,
      "type": "VEC3"
    },
    {
      "componentType": 5126,
      "byteOffset": 0,
      "bufferView": 1,
      "count": 192,
      "type": "VEC3"
    },
    {
      "componentType": 5126,
      "byteOffset": 0,
      "bufferView": 2,
      "count": 192,
      "type": "VEC2"
    },
    {
      "componentType": 5126,
      "byteOffset": 0,
      "bufferView": 2,
      "count": 192,
      "type": "VEC2"
    },
    {
      "componentType": 5126,
      "min": [
        -11,
        -1.5,
        -22
      ],
      "byteOffset": 0,
      "bufferView": 3,
      "max": [
        11,
        1.5,
        22
      ],
      "count": 432,
      "type": "VEC3"
    },
    {
      "componentType": 5126,
      "byteOffset": 0,
      "bufferView": 4,
      "count": 432,
      "type": "VEC3"
    },
    {
      "componentType": 5126,
      "byteOffset": 0,
      "bufferView": 5,
      "count": 432,
      "type": "VEC2"
    },
    {
      "componentType": 5126,
      "byteOffset": 0,
      "bufferView": 5,
      "count": 432,
      "type": "VEC2"
    },
    {
      "componentType": 5126,
      "min": [
        -12.999999046325684,
        -1.4999998807907104,
        -10.999999046325684
      ],
      "byteOffset": 0,
      "bufferView": 6,
      "max": [
        12.999999046325684,
        1.4999998807907104,
        10.999999046325684
      ],
      "count": 132,
      "type": "VEC3"
    },
    {
      "componentType": 5126,
      "byteOffset": 0,
      "bufferView": 7,
      "count": 132,
      "type": "VEC3"
    },
    {
      "componentType": 5126,
      "byteOffset": 0,
      "bufferView": 8,
      "count": 132,
      "type": "VEC2"
    },
    {
      "componentType": 5126,
      "byteOffset": 0,
      "bufferView": 8,
      "count": 132,
      "type": "VEC2"
    },
    {
      "componentType": 5126,
      "min": [
        -9,
        -0.5,
        -8
      ],
      "byteOffset": 0,
      "bufferView": 9,
      "max": [
        9,
        0.5,
        8
      ],
      "count": 36,
      "type": "VEC3"
    },
    {
      "componentType": 5126,
      "byteOffset": 0,
      "bufferView": 10,
      "count": 36,
      "type": "VEC3"
    },
    {
      "componentType": 5126,
      "byteOffset": 0,
      "bufferView": 11,
      "count": 36,
      "type": "VEC2"
    },
    {
      "componentType": 5126,
      "byteOffset": 0,
      "bufferView": 11,
      "count": 36,
      "type": "VEC2"
    },
    {
      "componentType": 5126,
      "min": [
        -9,
        -0.5,
        -5.999999523162842
      ],
      "byteOffset": 0,
      "bufferView": 12,
      "max": [
        9,
        0.5,
        5.999999523162842
      ],
      "count": 36,
      "type": "VEC3"
    },
    {
      "componentType": 5126,
      "byteOffset": 0,
      "bufferView": 13,
      "count": 36,
      "type": "VEC3"
    },
    {
      "componentType": 5126,
      "byteOffset": 0,
      "bufferView": 14,
      "count": 36,
      "type": "VEC2"
    },
    {
      "componentType": 5126,
      "byteOffset": 0,
      "bufferView": 14,
      "count": 36,
      "type": "VEC2"
    },
    {
      "componentType": 5126,
      "min": [
        -9,
        -0.5,
        -7.5
      ],
      "byteOffset": 0,
      "bufferView": 15,
      "max": [
        9,
        0.5,
        7.5
      ],
      "count": 36,
      "type": "VEC3"
    },
    {
      "componentType": 5126,
      "byteOffset": 0,
      "bufferView": 16,
      "count": 36,
      "type": "VEC3"
    },
    {
      "componentType": 5126,
      "byteOffset": 0,
      "bufferView": 17,
      "count": 36,
      "type": "VEC2"
    },
    {
      "componentType": 5126,
      "byteOffset": 0,
      "bufferView": 17,
      "count": 36,
      "type": "VEC2"
    }
  ],
  "textures": [
    {
      "source": 0,
      "sampler": 0
    },
    {
      "source": 1,
      "sampler": 0
    },
    {
      "source": 2,
      "sampler": 0
    },
    {
      "source": 3,
      "sampler": 0
    },
    {
      "source": 4,
      "sampler": 0
    },
    {
      "source": 5,
      "sampler": 0
    },
    {
      "source": 6,
      "sampler": 0
    },
    {
      "source": 7,
      "sampler": 0
    },
    {
      "source": 8,
      "sampler": 0
    },
    {
      "source": 9,
      "sampler": 0
    },
    {
      "source": 10,
      "sampler": 0
    },
    {
      "source": 11,
      "sampler": 0
    }
  ],
  "buffers": [
    {
      "byteLength": 2304,
      "uri": "data:application/octet-stream;base64,"
    },
    {
      "byteLength": 2304,
      "uri": "data:application/octet-stream;base64,"
    },
    {
      "byteLength": 1536,
      "uri": "data:application/octet-stream;base64,"
    },
    {
      "byteLength": 5184,
      "uri": "data:application/octet-stream;base64,"
    },
    {
      "byteLength": 5184,
      "uri": "data:application/octet-stream;base64,"
    },
    {
      "byteLength": 3456,
      "uri": "data:application/octet-stream;base64,"
    },
    {
      "byteLength": 1584,
      "uri": "data:application/octet-stream;base64,"
    },
    {
      "byteLength": 1584,
      "uri": "data:application/octet-stream;base64,"
    },
    {
      "byteLength": 1056,
      "uri": "data:application/octet-stream;base64,"
    },
    {
      "byteLength": 432,
      "uri": "data:application/octet-stream;base64,"
    },
    {
      "byteLength": 432,
      "uri": "data:application/octet-stream;base64,"
    },
    {
      "byteLength": 288,
      "uri": "data:application/octet-stream;base64,"
    },
    {
      "byteLength": 432,
      "uri": "data:application/octet-stream;base64,"
    },
    {
      "byteLength": 432,
      "uri": "data:application/octet-stream;base64,"
    },
    {
      "byteLength": 288,
      "uri": "data:application/octet-stream;base64,"
    },
    {
      "byteLength": 432,
      "uri": "data:application/octet-stream;base64,"
    },
    {
      "byteLength": 432,
      "uri": "data:application/octet-stream;base64,"
    },
    {
      "byteLength": 288,
      "uri": "data:application/octet-stream;base64,"
    }
  ],
  "bufferViews": [
    {
      "byteOffset": 0,
      "byteLength": 2304,
      "buffer": 0,
      "byteStride": 12,
      "target": 34962
    },
    {
      "byteOffset": 0,
      "byteLength": 2304,
      "buffer": 1,
      "byteStride": 12,
      "target": 34962
    },
    {
      "byteOffset": 0,
      "byteLength": 1536,
      "buffer": 2,
      "byteStride": 8,
      "target": 34962
    },
    {
      "byteOffset": 0,
      "byteLength": 5184,
      "buffer": 3,
      "byteStride": 12,
      "target": 34962
    },
    {
      "byteOffset": 0,
      "byteLength": 5184,
      "buffer": 4,
      "byteStride": 12,
      "target": 34962
    },
    {
      "byteOffset": 0,
      "byteLength": 3456,
      "buffer": 5,
      "byteStride": 8,
      "target": 34962
    },
    {
      "byteOffset": 0,
      "byteLength": 1584,
      "buffer": 6,
      "byteStride": 12,
      "target": 34962
    },
    {
      "byteOffset": 0,
      "byteLength": 1584,
      "buffer": 7,
      "byteStride": 12,
      "target": 34962
    },
    {
      "byteOffset": 0,
      "byteLength": 1056,
      "buffer": 8,
      "byteStride": 8,
      "target": 34962
    },
    {
      "byteOffset": 0,
      "byteLength": 432,
      "buffer": 9,
      "byteStride": 12,
      "target": 34962
    },
    {
      "byteOffset": 0,
      "byteLength": 432,
      "buffer": 10,
      "byteStride": 12,
      "target": 34962
    },
    {
      "byteOffset": 0,
      "byteLength": 288,
      "buffer": 11,
      "byteStride": 8,
      "target": 34962
    },
    {
      "byteOffset": 0,
      "byteLength": 432,
      "buffer": 12,
      "byteStride": 12,
      "target": 34962
    },
    {
      "byteOffset": 0,
      "byteLength": 432,
      "buffer": 13,
      "byteStride": 12,
      "target": 34962
    },
    {
      "byteOffset": 0,
      "byteLength": 288,
      "buffer": 14,
      "byteStride": 8,
      "target": 34962
    },
    {
      "byteOffset": 0,
      "byteLength": 432,
      "buffer": 15,
      "byteStride": 12,
      "target": 34962
    },
    {
      "byteOffset": 0,
      "byteLength": 432,
      "buffer": 16,
      "byteStride": 12,
      "target": 34962
    },
    {
      "byteOffset": 0,
      "byteLength": 288,
      "buffer": 17,
      "byteStride": 8,
      "target": 34962
    }
  ],
  "samplers": [{
    "minFilter": 9728,
    "wrapT": 33071,
    "wrapS": 33071,
    "magFilter": 9728
  }],
  "scene": 0,
  "nodes": [
    {
      "children": [
        1,
        2
      ],
      "rotation": [
        0,
        -1,
        0,
        -4.371138828673793E-8
      ],
      "translation": [
        0,
        0,
        0
      ],
      "name": "Root-Global",
      "scale": [
        -1,
        1,
        1
      ]
    },
    {
      "rotation": [
        0,
        0,
        0,
        1
      ],
      "translation": [
        0,
        0,
        0
      ],
      "name": "Root-Local",
      "scale": [
        1,
        1,
        1
      ]
    },
    {
      "children": [
        3,
        4
      ],
      "rotation": [
        0,
        0,
        0,
        1
      ],
      "translation": [
        0,
        0,
        0
      ],
      "name": "Controller-Global",
      "scale": [
        1,
        1,
        1
      ]
    },
    {
      "rotation": [
        0,
        0,
        0,
        1
      ],
      "translation": [
        0,
        0,
        0
      ],
      "name": "Controller-Local",
      "scale": [
        1,
        1,
        1
      ]
    },
    {
      "children": [
        5,
        6,
        8,
        10
      ],
      "rotation": [
        0.9238795638084412,
        0,
        -0,
        -0.3826833963394165
      ],
      "translation": [
        0,
        2.86102294921875E-6,
        20.506099700927734
      ],
      "name": "Part_1-Global",
      "scale": [
        1,
        1,
        1
      ]
    },
    {
      "rotation": [
        0,
        0,
        0,
        1
      ],
      "translation": [
        -0.017639636993408203,
        0.03605934977531433,
        24.993366241455078
      ],
      "name": "Part_1-Local",
      "scale": [
        1,
        1,
        1
      ],
      "mesh": 0
    },
    {
      "children": [7],
      "rotation": [
        0.8434198498725891,
        0,
        0,
        0.5372551083564758
      ],
      "translation": [
        1.52587890625E-5,
        0.03949260711669922,
        16.46535873413086
      ],
      "name": "Part_2-Global",
      "scale": [
        1,
        1,
        1
      ]
    },
    {
      "rotation": [
        0,
        0,
        0,
        1
      ],
      "translation": [
        -0.017639636993408203,
        0.03605934977531433,
        -9.533397674560547
      ],
      "name": "Part_2-Local",
      "scale": [
        1,
        1,
        1
      ],
      "mesh": 1
    },
    {
      "children": [9],
      "rotation": [
        0.5112931132316589,
        -0,
        0,
        0.8594064116477966
      ],
      "translation": [
        0,
        0,
        34.5189208984375
      ],
      "name": "Part_3-Global",
      "scale": [
        1,
        1,
        1
      ]
    },
    {
      "rotation": [
        0,
        0,
        0,
        1
      ],
      "translation": [
        0.011453986167907715,
        0.03605934977531433,
        -9.479867935180664
      ],
      "name": "Part_3-Local",
      "scale": [
        1,
        1,
        1
      ],
      "mesh": 2
    },
    {
      "children": [
        11,
        12
      ],
      "rotation": [
        0.9848078489303589,
        0,
        0,
        -0.17364820837974548
      ],
      "translation": [
        0,
        -0.460052490234375,
        46.99999237060547
      ],
      "name": "Part_4-Global",
      "scale": [
        1,
        1,
        1
      ]
    },
    {
      "rotation": [
        0,
        0,
        0,
        1
      ],
      "translation": [
        -0.01763927936553955,
        -0.4601128101348877,
        7.99336576461792
      ],
      "name": "Part_4-Local",
      "scale": [
        1,
        1,
        1
      ],
      "mesh": 3
    },
    {
      "children": [
        13,
        14
      ],
      "rotation": [
        1.1627604656894164E-8,
        -0.266008585691452,
        -0.9639706611633301,
        4.213649518192142E-8
      ],
      "translation": [
        8.742327395339089E-8,
        -1,
        16.051944732666016
      ],
      "name": "Part_5-Global",
      "scale": [
        1,
        1,
        1
      ]
    },
    {
      "rotation": [
        0,
        0,
        0,
        1
      ],
      "translation": [
        -0.01763927936553955,
        -0.4601128101348877,
        5.993366241455078
      ],
      "name": "Part_5-Local",
      "scale": [
        1,
        1,
        1
      ],
      "mesh": 4
    },
    {
      "children": [15],
      "rotation": [
        -0.3824670612812042,
        0,
        0,
        -0.9239691495895386
      ],
      "translation": [
        4.547473508864641E-13,
        3.814697265625E-6,
        12.076215744018555
      ],
      "name": "Part_6-Global",
      "scale": [
        1,
        1,
        1
      ]
    },
    {
      "rotation": [
        0,
        0,
        0,
        1
      ],
      "translation": [
        -0.01763927936553955,
        -0.4601128101348877,
        7.493366241455078
      ],
      "name": "Part_6-Local",
      "scale": [
        1,
        1,
        1
      ],
      "mesh": 5
    }
  ],
  "materials": [
    {
      "name": "Part_1-Material",
      "emissiveTexture": {
        "index": 1,
        "texCoord": 1
      },
      "pbrMetallicRoughness": {
        "baseColorTexture": {"index": 0},
        "metallicFactor": 0,
        "roughnessFactor": 1
      },
      "emissiveFactor": [
        1,
        1,
        1
      ]
    },
    {
      "name": "Part_2-Material",
      "emissiveTexture": {
        "index": 3,
        "texCoord": 1
      },
      "pbrMetallicRoughness": {
        "baseColorTexture": {"index": 2},
        "metallicFactor": 0,
        "roughnessFactor": 1
      },
      "emissiveFactor": [
        1,
        1,
        1
      ]
    },
    {
      "name": "Part_3-Material",
      "emissiveTexture": {
        "index": 5,
        "texCoord": 1
      },
      "pbrMetallicRoughness": {
        "baseColorTexture": {"index": 4},
        "metallicFactor": 0,
        "roughnessFactor": 1
      },
      "emissiveFactor": [
        1,
        1,
        1
      ]
    },
    {
      "name": "Part_4-Material",
      "emissiveTexture": {
        "index": 7,
        "texCoord": 1
      },
      "pbrMetallicRoughness": {
        "baseColorTexture": {"index": 6},
        "metallicFactor": 0,
        "roughnessFactor": 1
      },
      "emissiveFactor": [
        1,
        1,
        1
      ]
    },
    {
      "name": "Part_5-Material",
      "emissiveTexture": {
        "index": 9,
        "texCoord": 1
      },
      "pbrMetallicRoughness": {
        "baseColorTexture": {"index": 8},
        "metallicFactor": 0,
        "roughnessFactor": 1
      },
      "emissiveFactor": [
        1,
        1,
        1
      ]
    },
    {
      "name": "Part_6-Material",
      "emissiveTexture": {
        "index": 11,
        "texCoord": 1
      },
      "pbrMetallicRoughness": {
        "baseColorTexture": {"index": 10},
        "metallicFactor": 0,
        "roughnessFactor": 1
      },
      "emissiveFactor": [
        1,
        1,
        1
      ]
    }
  ],
  "animations": [],
  "scenes": [{"nodes": [0]}],
  "asset": {
    "generator": "VoxEdit Beta e2de1723",
    "version": "2.0"
  },
  "meshes": [
    {
      "primitives": [{
        "mode": 4,
        "material": 0,
        "attributes": {
          "POSITION": 0,
          "TEXCOORD_1": 3,
          "TEXCOORD_0": 2,
          "NORMAL": 1
        }
      }],
      "name": "Part_1-Mesh"
    },
    {
      "primitives": [{
        "mode": 4,
        "material": 1,
        "attributes": {
          "POSITION": 4,
          "TEXCOORD_1": 7,
          "TEXCOORD_0": 6,
          "NORMAL": 5
        }
      }],
      "name": "Part_2-Mesh"
    },
    {
      "primitives": [{
        "mode": 4,
        "material": 2,
        "attributes": {
          "POSITION": 8,
          "TEXCOORD_1": 11,
          "TEXCOORD_0": 10,
          "NORMAL": 9
        }
      }],
      "name": "Part_3-Mesh"
    },
    {
      "primitives": [{
        "mode": 4,
        "material": 3,
        "attributes": {
          "POSITION": 12,
          "TEXCOORD_1": 15,
          "TEXCOORD_0": 14,
          "NORMAL": 13
        }
      }],
      "name": "Part_4-Mesh"
    },
    {
      "primitives": [{
        "mode": 4,
        "material": 4,
        "attributes": {
          "POSITION": 16,
          "TEXCOORD_1": 19,
          "TEXCOORD_0": 18,
          "NORMAL": 17
        }
      }],
      "name": "Part_5-Mesh"
    },
    {
      "primitives": [{
        "mode": 4,
        "material": 5,
        "attributes": {
          "POSITION": 20,
          "TEXCOORD_1": 23,
          "TEXCOORD_0": 22,
          "NORMAL": 21
        }
      }],
      "name": "Part_6-Mesh"
    }
  ]
}